<svg  viewBox="0 0 50 50" xmlns="http://www.w3.org/2000/svg">
<g clip-path="url(#clip0_181_4296)">
<path fill='current' d="M24 50C10.1922 50 -1 38.8078 -1 25C-1 11.1922 10.1922 0 24 0C37.8078 0 49 11.1922 49 25C49 38.8078 37.8078 50 24 50ZM13.8594 18.35L23.8219 12.6188L33.7594 18.3625L23.8219 24.1078L13.8594 18.35ZM34.1344 18.1469L39.2234 15.1781L23.8219 6.25L8.375 15.1781V33.0359L23.8219 41.9641L39.2234 33.0359L33.7625 29.8516L23.8219 35.5953L13.8375 29.8516V24.7016L23.8375 30.4766L33.8656 24.6719V29.8516L39.2672 33.0359V15.1781L34.1344 18.1469Z" />
</g>
<defs>
<clipPath id="clip0_181_4296">
<rect width="50" height="50" fill="white"/>
</clipPath>
</defs>
</svg>
