<svg  viewBox="0 0 60 60"  xmlns="http://www.w3.org/2000/svg">
<mask id="mask0_181_4247" style="mask-type:luminance" maskUnits="userSpaceOnUse" x="8" y="3" width="44" height="54">
<path d="M47.5 5H12.5C11.1193 5 10 6.11929 10 7.5V52.5C10 53.8807 11.1193 55 12.5 55H47.5C48.8807 55 50 53.8807 50 52.5V7.5C50 6.11929 48.8807 5 47.5 5Z" stroke="white" stroke-width="4" stroke-linejoin="round"/>
<path d="M30 23.75C31.3261 23.75 32.5979 23.2232 33.5355 22.2855C34.4732 21.3479 35 20.0761 35 18.75C35 17.4239 34.4732 16.1521 33.5355 15.2145C32.5979 14.2768 31.3261 13.75 30 13.75C28.6739 13.75 27.4021 14.2768 26.4645 15.2145C25.5268 16.1521 25 17.4239 25 18.75C25 20.0761 25.5268 21.3479 26.4645 22.2855C27.4021 23.2232 28.6739 23.75 30 23.75Z" fill="current" stroke="white" stroke-width="4" stroke-linejoin="round"/>
<path d="M37.5 31.25C37.5 29.2609 36.7098 27.3532 35.3033 25.9467C33.8968 24.5402 31.9891 23.75 30 23.75C28.0109 23.75 26.1032 24.5402 24.6967 25.9467C23.2902 27.3532 22.5 29.2609 22.5 31.25M22.5 38.75H37.5M22.5 46.25H31.25" stroke="white" stroke-width="4" stroke-linecap="round" stroke-linejoin="round"/>
</mask>
<g mask="url(#mask0_181_4247)">
<path d="M0 0H60V60H0V0Z" />
</g>
</svg>
