<svg viewBox="0 0 60 60"  xmlns="http://www.w3.org/2000/svg">
<path d="M39.375 7.5C36.0131 7.5 32.9663 8.13 30.585 9.31687C28.2056 10.5037 26.25 12.4369 26.25 15V22.5C26.25 22.7419 26.3306 22.9762 26.3681 23.2031C24.4913 22.7262 22.5614 22.4899 20.625 22.5C17.2631 22.5 14.2162 23.13 11.835 24.3169C9.45562 25.5037 7.5 27.4369 7.5 30V45C7.5 47.5631 9.45563 49.4963 11.8369 50.6831C14.2163 51.87 17.2631 52.5 20.625 52.5C23.9869 52.5 27.0337 51.87 29.415 50.6831C31.7925 49.4963 33.75 47.5631 33.75 45V44.2388C35.5842 44.7346 37.475 44.9905 39.375 45C42.7369 45 45.7837 44.37 48.165 43.1831C50.5425 41.9963 52.5 40.0631 52.5 37.5V15C52.5 12.4369 50.5444 10.5037 48.1631 9.31687C45.7856 8.13 42.7388 7.5 39.375 7.5ZM39.375 11.25C42.2306 11.25 44.7731 11.865 46.4644 12.7144C48.1575 13.5638 48.75 14.4581 48.75 15C48.75 15.5437 48.1575 16.4362 46.4644 17.2856C44.775 18.135 42.2306 18.75 39.375 18.75C36.5194 18.75 33.9769 18.135 32.2856 17.2856C30.5925 16.4362 30 15.5419 30 15C30 14.4563 30.5925 13.5638 32.2856 12.7144C33.975 11.865 36.5194 11.25 39.375 11.25ZM30 20.3325C30.1969 20.4412 30.3806 20.5819 30.5869 20.6831C32.9662 21.87 36.0131 22.5 39.375 22.5C42.7369 22.5 45.7837 21.87 48.165 20.6831C48.3694 20.5819 48.5531 20.4412 48.75 20.3325V22.5C48.75 23.0437 48.1575 23.9362 46.4644 24.7856C44.7731 25.635 42.2306 26.25 39.375 26.25C36.5194 26.25 33.9769 25.635 32.2856 24.7856C30.5925 23.9362 30 23.0419 30 22.5V20.3325ZM20.625 26.25C23.4806 26.25 26.0231 26.865 27.7144 27.7144C29.4075 28.5638 30 29.4581 30 30C30 30.5438 29.4075 31.4362 27.7144 32.2856C26.0231 33.135 23.4806 33.75 20.625 33.75C17.7694 33.75 15.2269 33.135 13.5356 32.2856C11.8425 31.4362 11.25 30.5419 11.25 30C11.25 29.4562 11.8425 28.5638 13.5356 27.7144C15.225 26.865 17.7694 26.25 20.625 26.25ZM48.75 27.8325V30C48.75 30.5438 48.1575 31.4362 46.4644 32.2856C44.7731 33.135 42.2306 33.75 39.375 33.75C37.465 33.7604 35.5657 33.4634 33.75 32.8706V30C33.75 29.7581 33.6694 29.5238 33.6319 29.2969C35.3756 29.7506 37.3088 30 39.375 30C42.7369 30 45.7837 29.37 48.165 28.1831C48.3694 28.0819 48.5531 27.9412 48.75 27.8325ZM11.25 35.3325C11.4469 35.4412 11.6306 35.5819 11.8369 35.6831C14.2163 36.87 17.2631 37.5 20.625 37.5C23.9869 37.5 27.0337 36.87 29.415 35.6831C29.6194 35.5819 29.8031 35.4412 30 35.3325V37.5C30 38.0438 29.4075 38.9362 27.7144 39.7856C26.0231 40.635 23.4806 41.25 20.625 41.25C17.7694 41.25 15.2269 40.635 13.5356 39.7856C11.8425 38.9362 11.25 38.0419 11.25 37.5V35.3325ZM48.75 35.3325V37.5C48.75 38.0438 48.1575 38.9362 46.4644 39.7856C44.7731 40.635 42.2306 41.25 39.375 41.25C37.2431 41.25 35.3175 40.95 33.75 40.4287V36.7969C35.4713 37.2506 37.3463 37.5 39.375 37.5C42.7369 37.5 45.7837 36.87 48.165 35.6831C48.3694 35.5819 48.5531 35.4412 48.75 35.3325ZM11.25 42.8325C11.4469 42.9412 11.6306 43.0819 11.8369 43.1831C14.2163 44.37 17.2631 45 20.625 45C23.9869 45 27.0337 44.37 29.415 43.1831C29.6194 43.0819 29.8031 42.9412 30 42.8325V45C30 45.5438 29.4075 46.4362 27.7144 47.2856C26.0231 48.135 23.4806 48.75 20.625 48.75C17.7694 48.75 15.2269 48.135 13.5356 47.2856C11.8425 46.4362 11.25 45.5419 11.25 45V42.8325Z" />
</svg>
