<svg  viewBox="0 0 60 60"  xmlns="http://www.w3.org/2000/svg">
<path d="M4.99969 27.4C4.70945 27.2404 4.45439 27.0239 4.24977 26.7635C4.04514 26.503 3.89517 26.204 3.80881 25.8842C3.72245 25.5645 3.70148 25.2306 3.74717 24.9025C3.79285 24.5745 3.90425 24.259 4.07469 23.975L7.82469 17.5C8.09969 17 8.52469 16.65 8.99969 16.45L28.5747 5.45C28.9747 5.15 29.4747 5 29.9997 5C30.5247 5 31.0247 5.15 31.4247 5.45L51.1747 16.55C51.6497 16.8 52.0497 17.2 52.2747 17.7L55.8997 24C56.5997 25.2 56.1747 26.725 54.9997 27.4L52.4997 28.85V41.25C52.4997 42.2 51.9747 43.025 51.1747 43.45L31.4247 54.55C31.0247 54.85 30.5247 55 29.9997 55C29.4747 55 28.9747 54.85 28.5747 54.55L8.82469 43.45C8.42389 43.2394 8.08847 42.923 7.85487 42.5351C7.62127 42.1472 7.49843 41.7028 7.49969 41.25V27.4C6.74969 27.825 5.79969 27.85 4.99969 27.4ZM29.9997 10.375V27.125L44.8997 18.75L29.9997 10.375ZM12.4997 39.775L27.4997 48.225V31.45L12.4997 23.025V39.775ZM47.4997 39.775V31.725L34.9997 38.975C34.1747 39.425 33.2497 39.4 32.4997 39V48.225L47.4997 39.775ZM34.6247 33.4L50.3247 24.325L48.8747 21.8L33.1747 30.875L34.6247 33.4Z" fill="current"/>
</svg>
