<?xml version="1.0" encoding="UTF-8"?>
<svg  xmlns="http://www.w3.org/2000/svg" viewBox="0 0 1382 374.94">

    <g>
    <polygon class="logo-symbol" points="193 263.94 169 277.8 145 263.94 121 250.08 97 236.22 97 264.01 97 291.73 97 319.44 97 347.15 145 374.87 145 319.45 169 333.31 193 319.45 193 374.94 241 347.23 241 319.36 241 291.65 241 263.94 241 236.22 217 250.08 193 263.94"/>
    <polygon class="logo-symbol" points="336.34 96.9 336.45 96.83 324.42 89.88 312.38 82.94 264.24 55.15 240.17 41.24 216.09 55.15 167.95 82.94 155.91 89.88 143.88 96.83 167.95 110.74 192.02 124.63 216.09 110.72 240.17 96.83 264.24 110.72 264.91 111.11 264.78 111.18 240.71 125.08 216.64 138.98 192.57 152.87 168.5 166.77 144.43 152.87 120.37 138.98 96.29 125.08 72.22 111.18 72.09 111.11 144.43 69.48 168.5 55.59 216.84 27.49 192.57 13.9 168.5 0 144.43 13.9 96.29 41.7 84.25 48.64 0 97.28 0 125.08 0 194.5 0 263.91 0 291.68 24.5 305.56 49 319.44 49 291.54 49 263.83 49 236.12 49 152.98 97 180.69 121 194.55 145 208.4 169 222.27 193 208.4 217 194.55 241 180.69 289 152.98 289 236.22 289 263.94 289 291.65 289 319.36 313 305.51 337 291.65 337 264.05 337 194.57 337 125.08 337 97.28 336.34 96.9"/>
  </g>
  <g>
    <path class="logo-text" d="m457,106.22h22.83l57.55,115.46,57.55-115.46h25.08v163h-26v-104.48l-51.08,104.48h-9.19l-50.73-104.48v104.48h-26V106.22Z"/>
    <path class="logo-text" d="m642.51,187.56c0-53.39,32.82-84.84,76.55-84.84,40.2,0,63.49,19.68,71.78,53.17l-27.94,4.41c-6.25-19.23-20.44-31.67-42.14-31.79-32.94-.45-49.18,23.42-49.29,59.05-.11,35.63,16.35,58.71,49.29,59.16,24.65.34,40.66-13.69,44.86-41.5h-28.62v-21h57.7c.23,1.75.45,7.97.45,8.88,0,46.16-28.62,79.3-76.09,79.3-42.59,0-76.55-30.54-76.55-84.84Z"/>
    <path class="logo-text" d="m818,106.22h66.66c3.14,0,8.74.23,12.88.9,28.01,4.42,41.12,25.24,41.12,52.18,0,21.96-8.85,39.84-27.22,48.11l29.8,61.8h-29.57l-27.76-57h-38.91v57h-27V106.22Zm66.08,80c3.07,0,7.16-.23,10.34-1.13,13.63-3.39,17.95-15.96,17.95-26.37s-4.32-22.97-17.95-26.48c-3.18-.79-7.27-1.02-10.34-1.02h-39.08v55h39.08Z"/>
    <path class="logo-text" d="m958.23,187.56c0-50.57,29.3-84.84,78.25-84.84s78.37,34.28,78.37,84.84-29.3,84.84-78.37,84.84-78.25-34.28-78.25-84.84Zm78.25,59.16c32.94.34,49.4-23.53,49.4-59.16s-16.47-58.71-49.4-59.16c-32.94-.34-49.18,23.53-49.29,59.16-.11,35.63,16.35,58.71,49.29,59.16Z"/>
    <path class="logo-text" d="m1115.7,106.22h28.18l43.19,136.51,43.75-136.51h28.18l-51.59,163h-40.12l-51.6-163Z"/>
    <path class="logo-text" d="m1276,106.22h105v26h-78v39h65v26h-65v46h79v26h-106V106.22Z"/>
  </g>
</svg>