<?xml version="1.0" encoding="UTF-8"?>
<svg 
   xmlns="http://www.w3.org/2000/svg" viewBox="0 0 336.64 374.83">
  <polygon class="cls-1" points="192.37 263.77 168.32 277.65 144.27 263.77 120.23 249.89 96.18 236 96.18 263.77 96.18 291.53 96.18 319.3 96.18 347.06 144.27 374.83 144.27 319.3 168.32 333.18 192.37 319.3 192.37 374.83 240.45 347.06 240.45 319.3 240.45 291.53 240.45 263.77 240.45 236 216.41 249.89 192.37 263.77"/>
  <polygon class="cls-1" points="335.98 96.79 336.09 96.73 324.07 89.78 312.04 82.85 263.95 55.09 239.91 41.2 215.86 55.09 167.77 82.85 155.75 89.78 143.73 96.73 167.77 110.62 191.82 124.49 215.86 110.61 239.91 96.73 263.95 110.61 264.62 110.99 264.5 111.06 240.45 124.94 216.41 138.83 192.37 152.71 168.32 166.59 144.27 152.71 120.24 138.83 96.18 124.94 72.14 111.06 72.01 110.99 144.27 69.41 168.32 55.53 216.61 27.46 192.37 13.89 168.32 0 144.27 13.89 96.18 41.65 84.16 48.59 0 97.17 0 124.94 0 194.36 0 263.77 0 291.53 24.05 305.42 48.09 319.3 48.09 291.53 48.09 263.77 48.09 236 48.09 152.71 96.18 180.47 120.23 194.36 144.27 208.24 168.32 222.12 192.37 208.24 216.41 194.36 240.45 180.47 288.55 152.71 288.55 236 288.55 263.77 288.55 291.53 288.55 319.3 312.59 305.42 336.64 291.53 336.64 263.77 336.64 194.36 336.64 124.94 336.64 97.17 335.98 96.79"/>
</svg>