<svg  viewBox="0 0 60 60"  xmlns="http://www.w3.org/2000/svg">
<path d="M41.25 29.9998C41.2527 27.8492 40.555 25.7562 39.2625 24.0373L44.25 19.0873C45.2253 19.493 46.2688 19.7093 47.325 19.7248C48.2805 19.7548 49.2325 19.5962 50.1267 19.2581C51.0208 18.9199 51.8396 18.4089 52.5361 17.7542C53.2326 17.0994 53.7933 16.3138 54.186 15.4423C54.5788 14.5707 54.7959 13.6303 54.825 12.6748C54.825 10.6857 54.0348 8.77803 52.6283 7.3715C51.2218 5.96498 49.3141 5.1748 47.325 5.1748C45.3359 5.1748 43.4282 5.96498 42.0217 7.3715C40.6152 8.77803 39.825 10.6857 39.825 12.6748C39.8298 13.8348 40.1402 14.973 40.725 15.9748L35.7375 20.9623C33.9843 19.981 32.0092 19.4646 30 19.4623C27.5193 19.4281 25.0969 20.2149 23.1098 21.7002C21.1226 23.1855 19.6821 25.286 19.0125 27.6748H16.425C15.8586 26.2744 14.8826 25.0776 13.6246 24.2412C12.3667 23.4048 10.8855 22.9678 9.375 22.9873C7.45158 22.9266 5.58245 23.6304 4.1768 24.9447C2.77114 26.259 1.94348 28.0766 1.875 29.9998C1.90409 30.9553 2.12122 31.8957 2.51397 32.7673C2.90671 33.6388 3.46738 34.4244 4.16391 35.0792C4.86044 35.7339 5.67919 36.2449 6.57334 36.5831C7.46749 36.9212 8.41952 37.0798 9.375 37.0498C10.8855 37.0694 12.3667 36.6323 13.6246 35.7959C14.8826 34.9595 15.8586 33.7627 16.425 32.3623H19.0125C19.6821 34.7511 21.1226 36.8516 23.1098 38.3369C25.0969 39.8222 27.5193 40.609 30 40.5748C31.4332 40.6198 32.8613 40.3819 34.2025 39.8747C35.5437 39.3675 36.7718 38.6009 37.8166 37.6188C38.8614 36.6367 39.7024 35.4583 40.2915 34.151C40.8807 32.8437 41.2064 31.4331 41.25 29.9998ZM47.325 10.3498C48.0059 10.2871 48.6839 10.4965 49.2109 10.9321C49.7379 11.3678 50.071 11.9943 50.1375 12.6748C50.0282 13.3419 49.6853 13.9484 49.1702 14.3861C48.655 14.8237 48.001 15.064 47.325 15.064C46.649 15.064 45.995 14.8237 45.4798 14.3861C44.9647 13.9484 44.6218 13.3419 44.5125 12.6748C44.5883 11.9982 44.9239 11.3775 45.4487 10.9437C45.9734 10.5099 46.6462 10.2969 47.325 10.3498ZM9.375 32.3623C8.69036 32.4146 8.01248 32.1965 7.48672 31.7549C6.96096 31.3133 6.62917 30.6832 6.5625 29.9998C6.63826 29.3232 6.97394 28.7025 7.49869 28.2687C8.02344 27.8349 8.69621 27.6219 9.375 27.6748C10.0538 27.6219 10.7266 27.8349 11.2513 28.2687C11.7761 28.7025 12.1117 29.3232 12.1875 29.9998C12.1208 30.6832 11.789 31.3133 11.2633 31.7549C10.7375 32.1965 10.0596 32.4146 9.375 32.3623ZM30 35.8873C28.3509 35.9692 26.7362 35.3966 25.5072 34.294C24.2782 33.1914 23.5343 31.6481 23.4375 29.9998C23.5342 28.3546 24.2793 26.8149 25.5095 25.7183C26.7397 24.6217 28.3546 24.0576 30 24.1498C31.643 24.0676 33.2523 24.6351 34.4803 25.7297C35.7083 26.8244 36.4562 28.3582 36.5625 29.9998C36.4562 31.6445 35.7095 33.1821 34.4827 34.2827C33.2559 35.3834 31.6466 35.9594 30 35.8873Z" fill="current"/>
<path d="M9.375 16.425C10.4335 16.4319 11.4815 16.2146 12.45 15.7875L19.05 22.5C20.0057 21.2238 21.1725 20.1204 22.5 19.2375L15.975 12.675C16.5598 11.6732 16.8702 10.535 16.875 9.37501C16.8065 7.45186 15.9789 5.63417 14.5732 4.31988C13.1675 3.0056 11.2984 2.30178 9.375 2.36252C7.45158 2.30178 5.58245 3.0056 4.1768 4.31988C2.77114 5.63417 1.94348 7.45186 1.875 9.37501C1.90409 10.3305 2.12122 11.2709 2.51397 12.1425C2.90671 13.014 3.46738 13.7996 4.16391 14.4544C4.86044 15.1091 5.67919 15.6202 6.57334 15.9583C7.46749 16.2964 8.41952 16.455 9.375 16.425ZM9.375 7.05001C10.0538 6.99716 10.7266 7.2101 11.2513 7.64389C11.7761 8.07769 12.1117 8.6984 12.1875 9.37501C12.1208 10.0584 11.789 10.6885 11.2633 11.1301C10.7375 11.5718 10.0596 11.7898 9.375 11.7375C8.69036 11.7898 8.01248 11.5718 7.48672 11.1301C6.96096 10.6885 6.62917 10.0584 6.5625 9.37501C6.63826 8.6984 6.97394 8.07769 7.49869 7.64389C8.02344 7.2101 8.69621 6.99716 9.375 7.05001ZM50.625 43.6125C49.5665 43.6056 48.5185 43.8229 47.55 44.25L40.95 37.5C39.9735 38.7392 38.7943 39.8042 37.4625 40.65L43.9875 47.175C43.4142 48.1798 43.1166 49.3182 43.125 50.475C43.125 52.4641 43.9152 54.3718 45.3217 55.7783C46.7282 57.1848 48.6359 57.975 50.625 57.975C52.6141 57.975 54.5218 57.1848 55.9283 55.7783C57.3348 54.3718 58.125 52.4641 58.125 50.475C58.0183 48.5784 57.174 46.7988 55.7725 45.5164C54.3711 44.2341 52.5236 43.5508 50.625 43.6125ZM50.625 52.9875C49.9404 53.0398 49.2625 52.8218 48.7367 52.3801C48.211 51.9385 47.8792 51.3084 47.8125 50.625C47.9218 49.9579 48.2647 49.3514 48.7798 48.9138C49.295 48.4761 49.949 48.2358 50.625 48.2358C51.301 48.2358 51.955 48.4761 52.4702 48.9138C52.9853 49.3514 53.3282 49.9579 53.4375 50.625C53.3708 51.3084 53.039 51.9385 52.5133 52.3801C51.9875 52.8218 51.3096 53.0398 50.625 52.9875Z" fill="current"/>
</svg>
